<svg xmlns="http://www.w3.org/2000/svg" version="1.1" xmlns:xlink="http://www.w3.org/1999/xlink" xmlns:svgjs="http://svgjs.com/svgjs" width="1440" height="760" preserveAspectRatio="none" viewBox="0 0 1440 760"><g mask="url(&quot;#SvgjsMask1030&quot;)" fill="none"><rect width="1440" height="760" x="0" y="0" fill="rgba(0, 75, 160, 1)"></rect><path d="M0,440.959C100.244,443.387,214.051,518.049,294.243,457.85C375.758,396.658,328.264,261.781,365.222,166.791C399.065,79.808,493.459,21.136,500.372,-71.943C507.784,-171.743,479.026,-283.954,403.584,-349.707C329.197,-414.541,213.679,-377.491,118.78,-404.529C24.981,-431.254,-52.294,-520.497,-148.904,-507.12C-247.764,-493.431,-319.403,-408.799,-386.163,-334.612C-453.966,-259.265,-519.07,-177.007,-535.912,-77.053C-552.947,24.046,-523.897,126.57,-479.435,218.951C-435.595,310.039,-376.953,401.338,-285.222,443.815C-197.161,484.593,-97.016,438.609,0,440.959" fill="#003168"></path><path d="M1440 1330.351C1544.829 1326.155 1612.649 1222.701 1700.791 1165.799 1788.704 1109.045 1917.209 1092.905 1957.44 996.307 1997.7269999999999 899.5740000000001 1917.5430000000001 797.056 1897.173 694.268 1878.145 598.252 1898.152 491.899 1841.6399999999999 411.977 1783.188 329.311 1686.87 277.479 1587.78 256.707 1492.472 236.72699999999998 1400.64 282.375 1304.7649999999999 299.431 1194.912 318.974 1054.899 278.691 983.279 364.249 911.427 450.085 965.178 581.675 975.171 693.168 983.029 780.844 1003.679 862.668 1035.314 944.814 1068.954 1032.166 1097.663 1122.662 1165.437 1187.229 1241.708 1259.891 1334.741 1334.5639999999999 1440 1330.351" fill="#0065d8"></path></g><defs><mask id="SvgjsMask1030"><rect width="1440" height="760" fill="#ffffff"></rect></mask></defs></svg>